# xmcd
# 
# Track frame offsets:
#     150
#     15713
#     28795
#     41704
# 
# Disc length: 786
# 
# Revision: 0
# Processed by: cddbd v1.5.2PL0 Copyright (c) Steve Scherf et al.
# Submitted via: fre:ac v1.0.17
# 
DISCID=2b031004
DTITLE=Human Sound System - Human Sound System
DYEAR=2014
DGENRE=funk rock fanfare
TTITLE0=Mister Bond
TTITLE1=Saturn
TTITLE2=Cry Me
TTITLE3=Anonymous
EXTD=
EXTT0=
EXTT1=
EXTT2=
EXTT3=
PLAYORDER=
